# AST/ASF file generated using VICON BodyLanguage
# -----------------------------------------------
:version 1.10
:name VICON
:units
  mass 1.0
  length 0.45
  angle deg
:documentation
   .ast/.asf automatically generated from VICON data using
   VICON BodyBuilder and BodyLanguage model FoxedUp or BRILLIANT.MOD
:root
   order TX TY TZ RX RY RZ
   axis XYZ
   position 0 0 0  
   orientation 0 0 0 
:bonedata
  begin
     id 1 
     name lhipjoint
     direction 0.822369 -0.411937 0.392449 
     length 3.8167 
     axis 0 0 0  XYZ
  end
  begin
     id 2 
     name lfemur
     direction 0.34202 -0.939693 0  
     length 6.16791  
     axis 0 0 20  XYZ
    dof rx ry rz
    limits (-160.0 20.0)
           (-70.0 70.0)
           (-60.0 70.0)
  end
  begin
     id 3 
     name ltibia
     direction 0.34202 -0.939693 0   
     length 7.07101   
     axis 0 0 20   XYZ
    dof rx
    limits (-10.0 170.0)
  end
  begin
     id 4 
     name lfoot
     direction 0.028254 -0.0776273 0.996582   
     length 1.66799   
     axis -90 7.62852e-016 20   XYZ
    dof rx rz
    limits (-45.0 90.0)
           (-70.0 20.0)
  end
  begin
     id 5 
     name ltoes
     direction 1.53483e-011 -4.21688e-011 1   
     length 0.851674   
     axis -90 7.62852e-016 20   XYZ
    dof rx
    limits (-90.0 20.0)
  end
  begin
     id 6 
     name rhipjoint
     direction -0.822466 -0.411836 0.392353   
     length 3.81764  
     axis 0 0 0  XYZ 
  end
  begin
     id 7 
     name rfemur
     direction -0.34202 -0.939693 0   
     length 6.28636   
     axis 0 0 -20   XYZ
    dof rx ry rz
    limits (-160.0 20.0)
           (-70.0 70.0)
           (-70.0 60.0)
  end
  begin
     id 8 
     name rtibia
     direction -0.34202 -0.939693 0   
     length 6.85621   
     axis 0 0 -20   XYZ
    dof rx
    limits (-10.0 170.0)
 end
 begin
     id 9 
     name rfoot
     direction -0.0553036 -0.151945 0.98684   
     length 1.57293  
     axis -90 -7.62852e-016 -20   XYZ
    dof rx rz
    limits (-45.0 90.0)
           (-20.0 70.0)
  end
  begin
     id 10 
     name rtoes
     direction -1.53592e-011 -4.21964e-011 1   
     length 0.802812   
     axis -90 -7.62852e-016 -20   XYZ
    dof rx
    limits (-90.0 20.0)
  end
  begin
     id 11 
     name lowerback
     direction 0.00654913 0.996475 -0.0836396   
     length 1.97212   
     axis 0 0 0   XYZ
    dof rx ry rz
    limits (-20.0 45.0)
           (-30.0 30.0)
           (-30.0 30.0)
  end
  begin
     id 12 
     name upperback
     direction 0.0111875 0.994527 0.103877   
     length 1.89704   
     axis 0 0 0   XYZ
    dof rx ry rz
    limits (-20.0 45.0)
           (-30.0 30.0)
           (-30.0 30.0)
  end
  begin
     id 13 
     name thorax
     direction 0.00473652 0.989004 0.147814   
     length 1.94516   
     axis 0 0 0   XYZ
    dof rx ry rz
    limits (-20.0 45.0)
           (-30.0 30.0)
           (-30.0 30.0)
  end
  begin
     id 14 
     name lowerneck
     direction -0.00925808 0.999011 0.0434791   
     length 1.81771   
     axis 0 0 0   XYZ
    dof rx ry rz
    limits (-20.0 45.0)
           (-30.0 30.0)
           (-30.0 30.0)
  end
  begin
     id 15 
     name upperneck
     direction 0.00451595 0.964412 -0.264365   
     length 1.80434   
     axis 0 0 0   XYZ
    dof rx ry rz
    limits (-20.0 45.0)
           (-30.0 30.0)
           (-30.0 30.0)
  end
  begin
     id 16
     name head
     direction -0.00110849 0.995756 -0.0920241  
     length 1.84006  
     axis 0 0 0   XYZ
    dof rx ry rz
    limits (-20.0 45.0)
           (-30.0 30.0)
           (-30.0 30.0)
  end
  begin
     id 17 
     name lclavicle
     direction 0.921253 0.385213 0.0538957  
     length 3.67415  
     axis 0 0 0   XYZ
    dof ry rz
    limits (-20.0 10.0)
           (0.0 20.0)
  end
  begin
     id 18 
     name lhumerus
     direction 1 -4.48961e-011 6.73441e-028   
     length 4.32712   
     axis 180 -30 -90   XYZ
    dof rx ry rz
    limits (-60.0 90.0)
           (-90.0 90.0)
           (-90.0 90.0)
  end
  begin
     id 19
     name lradius
     direction 1 -4.48985e-011 -9.53507e-028   
     length 3.28587   
     axis 180 -30 -90   XYZ
    dof rx
    limits (-10.0 170.0)
  end
  begin
     id 20
     name lwrist
     direction 1 -4.48951e-011 -4.67472e-027   
     length 1.64293   
     axis 1.65735e-015 90 90   XYZ
    dof ry
    limits (-180.0 0.0)
 end
  begin
     id 21 
     name lhand
     direction 1 -4.48946e-011 -9.34945e-027   
     length 0.433158   
     axis 5.96574e-015 90 90   XYZ
    dof rx rz
    limits (-90.0 90.0)
           (-45.0 45.0)
  end
  begin
     id 22 
     name lfingers
     direction 1 -4.48882e-011 -1.86989e-026   
     length 0.349224   
     axis 1.19315e-014 90 90   XYZ
    dof rx
    limits (0.0 90.0)
  end
  begin
     id 23
     name lthumb
     direction 0.707107 -6.3493e-011 0.707107   
     length 0.501417   
     axis -90 45 2.85299e-015   XYZ
    dof rx rz
    limits (-45.0 45.0)
           (-45.0 45.0)
  end
  begin
     id 24 
     name rclavicle
     direction -0.884378 0.46502 -0.0403866   
     length 3.50218  
     axis 0 0 0   XYZ 
    dof ry rz
    limits (-10.0 20.0)
           (-20.0 0.0)
  end
  begin
     id 25 
     name rhumerus
     direction -1 -4.48964e-011 1.58188e-027  
     length 4.29104   
     axis 180 30 90   XYZ
    dof rx ry rz
    limits (-90.0 60.0)
           (-90.0 90.0)
           (-90.0 90.0)
  end
  begin
     id 26 
     name rradius
     direction -1 -4.48978e-011 -1.9722e-027   
     length 3.2272   
     axis 180 30 90   XYZ
    dof rx
    limits (-10.0 170.0)
  end
  begin
     id 27 
     name rwrist
     direction -1 -4.48969e-011 -4.67472e-027   
     length 1.6136   
     axis 1.65735e-015 -90 -90   XYZ
    dof ry
    limits (-180.0 0.0)
  end
  begin
     id 28
     name rhand
     direction -1 -4.48846e-011 -9.34945e-027   
     length 0.543623   
     axis 5.96574e-015 -90 -90   XYZ
    dof rx rz
    limits (-90.0 90.0)
           (-45.0 45.0)
  end
  begin
     id 29
     name rfingers
     direction -1 -4.49074e-011 -1.86989e-026   
     length 0.438283   
     axis 1.19315e-014 -90 -90   XYZ
    dof rx
    limits (0.0 90.0)
  end
  begin
     id 30
     name rthumb
     direction -0.707107 -6.34834e-011 0.707107   
     length 0.629289   
     axis -90 -45 -2.85299e-015   XYZ
    dof rx rz
    limits (-45.0 45.0)
           (-45.0 45.0)
  end
:hierarchy
  begin
    root lhipjoint rhipjoint lowerback
    lhipjoint lfemur
    lfemur ltibia
    ltibia lfoot
    lfoot ltoes
    rhipjoint rfemur
    rfemur rtibia
    rtibia rfoot
    rfoot rtoes
    lowerback upperback
    upperback thorax
    thorax lowerneck lclavicle rclavicle
    lowerneck upperneck
    upperneck head
    lclavicle lhumerus
    lhumerus lradius
    lradius lwrist
    lwrist lhand lthumb
    lhand lfingers
    rclavicle rhumerus
    rhumerus rradius
    rradius rwrist
    rwrist rhand rthumb
    rhand rfingers
  end

#!OML:ASF H:\GeneralSubjects\Female5\Project 1\Capture day 1\Session 1\Female5.ASF
:FULLY-SPECIFIED
:DEGREES
56
root -13.0346 16.7691 1.44104 -81.8693 -95.9853 95.471
lowerback 4.61617 4.09293 4.99889
upperback -11.7154 5.88377 0.429014
thorax -15.0925 2.05765 -3.25013
lowerneck -17.9808 -2.3526 -3.23917
upperneck 27.7779 -0.929407 -6.15225
head 12.1679 -1.76436 -1.95692
rclavicle 3.02401e-014 -2.56432e-014
rhumerus -50.4858 20.5331 -79.2692
rradius 97.5361
rwrist -8.98872
rhand -37.4759 -8.9341
rfingers 7.12502
rthumb -10.5337 -38.6501
lclavicle 3.02401e-014 -2.56432e-014
lhumerus -82.8247 -16.614 83.3586
lradius 101.78
lwrist 0.942341
lhand -35.7917 28.3813
lfingers 7.12502
lthumb -8.90884 58.1732
rfemur 17.6826 4.86314 40.1833
rtibia 7.12207
rfoot 12.4146 -27.9221
rtoes -10.9311
lfemur -49.9243 -29.7685 -0.168136
ltibia 11.0531
lfoot -36.3368 -6.13316
ltoes -36.2695
57
root -13.9331 16.8099 1.41966 -82.812 -97.6632 96.4182
lowerback 4.22037 4.1342 6.09304
upperback -11.875 6.06823 0.789622
thorax -14.9646 2.03968 -3.44481
lowerneck -18.3998 -2.55449 -3.31871
upperneck 28.4085 -1.40402 -5.30108
head 12.4974 -1.88857 -1.72393
rclavicle -1.31943e-014 -1.27222e-014
rhumerus -52.0728 21.1048 -80.2998
rradius 97.9294
rwrist -11.2796
rhand -37.3546 -9.09142
rfingers 7.12502
rthumb -10.4167 -38.8134
lclavicle -1.31943e-014 -1.27222e-014
lhumerus -82.1698 -17.2563 82.9398
lradius 101.765
lwrist 1.14159
lhand -35.8674 27.7679
lfingers 7.12502
lthumb -8.98186 57.5567
rfemur 16.0222 2.01466 40.5472
rtibia 13.1568
rfoot 15.7675 -28.2404
rtoes 1.59585
lfemur -48.9721 -28.4792 -0.00554344
ltibia 11.8279
lfoot -34.0626 -7.91865
ltoes -36.9735
58
root -14.8322 16.7673 1.39522 -81.5637 -98.7095 94.6874
lowerback 4.17926 4.08794 6.27451
upperback -11.8282 6.06273 1.20358
thorax -14.9169 2.04862 -3.07831
lowerneck -18.9189 -2.57908 -3.36248
upperneck 29.0267 -1.6503 -4.42972
head 12.8558 -1.90083 -1.4519
rclavicle 3.80176e-014 -2.18663e-015
rhumerus -53.5069 21.5901 -81.2698
rradius 97.1181
rwrist -13.2042
rhand -36.436 -9.75189
rfingers 7.12502
rthumb -9.5305 -39.5164
lclavicle 3.80176e-014 -2.18663e-015
lhumerus -80.9637 -17.5856 82.7131
lradius 101.529
lwrist 1.14596
lhand -35.9636 27.9187
lfingers 7.12502
lthumb -9.07465 57.7035
rfemur 14.6967 -0.291886 40.4704
rtibia 19.8667
rfoot 11.7998 -28.6016
rtoes 7.81346
lfemur -47.0469 -27.3742 -1.19286
ltibia 13.7199
lfoot -30.7724 -9.20366
ltoes -38.7656
59
root -15.7462 16.6369 1.37038 -79.6375 -99.2661 91.8438
lowerback 4.27271 3.9837 6.14183
upperback -11.6073 5.93781 1.44873
thorax -14.7571 2.03861 -2.71761
lowerneck -19.4139 -2.52321 -3.27312
upperneck 29.5665 -1.83144 -3.59348
head 13.1828 -1.86786 -1.1978
rclavicle 1.89839e-014 2.82274e-014
rhumerus -55.0412 22.074 -82.6891
rradius 94.614
rwrist -13.8704
rhand -36.6313 -7.51376
rfingers 7.12502
rthumb -9.7189 -37.2695
lclavicle 1.89839e-014 2.82274e-014
lhumerus -79.2323 -17.9041 82.5568
lradius 101.261
lwrist 1.03147
lhand -35.7012 28.7509
lfingers 7.12502
lthumb -8.82142 58.5465
rfemur 13.7324 -2.31966 39.9008
rtibia 26.765
rfoot 10.0301 -27.177
rtoes -0.928705
lfemur -43.0277 -26.664 -3.27349
ltibia 14.1439
lfoot -27.9315 -9.79553
ltoes -39.7395
60
root -16.6555 16.438 1.34361 -75.8437 -99.3793 86.8073
lowerback 4.77955 3.8814 5.61073
upperback -11.3289 5.7956 1.54269
thorax -14.8092 2.04866 -2.33634
lowerneck -19.6572 -2.38964 -2.78405
upperneck 29.8208 -1.95034 -3.1171
head 13.332 -1.80286 -1.12566
rclavicle -1.16289e-014 4.37326e-015
rhumerus -56.5925 22.4064 -84.1983
rradius 91.6647
rwrist -14.1869
rhand -35.7568 -10.514
rfingers 7.12502
rthumb -8.87513 -40.3074
lclavicle -1.16289e-014 4.37326e-015
lhumerus -77.1489 -18.1407 82.5515
lradius 101.091
lwrist 0.861112
lhand -35.1503 29.8681
lfingers 7.12502
lthumb -8.2898 59.6854
rfemur 13.0562 -4.33312 38.4456
rtibia 33.4118
rfoot 4.95216 -28.5726
rtoes 5.37991
lfemur -37.9572 -25.7548 -5.97955
ltibia 14.0105
lfoot -21.6788 -6.81131
ltoes -37.6517
61
root -17.5437 16.1948 1.32008 -72.1778 -99.6968 81.8691
lowerback 5.75322 3.73888 5.28365
upperback -11.2159 5.66024 1.62726
thorax -15.3489 2.01053 -2.11376
lowerneck -19.0725 -2.19294 -1.86593
upperneck 29.553 -2.1368 -2.74394
head 13.0784 -1.72491 -1.14929
rclavicle 0 1.19271e-015
rhumerus -58.0701 22.0971 -85.524
rradius 87.6162
rwrist -13.0991
rhand -34.1137 -11.271
rfingers 7.12502
rthumb -7.28929 -41.1254
lclavicle 0 1.19271e-015
lhumerus -74.8863 -18.3374 82.8567
lradius 100.835
lwrist 0.646784
lhand -34.6583 30.6776
lfingers 7.12502
lthumb -7.81498 60.5132
rfemur 12.1978 -6.35986 36.9453
rtibia 39.734
rfoot 0.653569 -28.777
rtoes 5.16146
lfemur -32.3736 -22.6911 -9.38408
ltibia 12.9662
lfoot -20.7728 3.69252
ltoes -38.1832
62
root -18.3965 15.9158 1.30708 -68.5097 -99.2497 76.7452
lowerback 7.40158 3.47121 4.48802
upperback -11.1509 5.29261 1.33301
thorax -16.4056 1.87361 -2.05877
lowerneck -17.3754 -2.05587 -0.300859
upperneck 28.1124 -2.39514 -3.03352
head 12.1035 -1.68951 -1.49751
rclavicle -4.47266e-015 3.97569e-015
rhumerus -58.8762 20.7587 -86.6242
rradius 82.2857
rwrist -10.5276
rhand -31.4326 -11.3787
rfingers 7.12502
rthumb -4.70084 -41.3066
lclavicle -4.47266e-015 3.97569e-015
lhumerus -72.1902 -18.5432 83.4002
lradius 100.319
lwrist 0.518424
lhand -34.3254 31.4214
lfingers 7.12502
lthumb -7.49369 61.2687
rfemur 11.1631 -7.96738 34.8963
rtibia 46.0239
rfoot -12.6841 -24.4504
rtoes 26.8636
lfemur -27.7109 -19.2102 -13.8729
ltibia 13.5654
lfoot -12.6162 5.63004
ltoes -18.186
63
root -19.2136 15.6762 1.30298 -66.3878 -98.235 72.3015
lowerback 10.4491 2.96946 3.70395
upperback -10.7923 4.6195 0.710459
thorax -18.0208 1.56205 -2.38648
lowerneck -16.5133 -1.74399 0.642384
upperneck 27.7334 -2.59746 -1.88833
head 11.7768 -1.53273 -1.23665
rclavicle 2.24627e-014 1.59028e-014
rhumerus -58.9542 18.7741 -87.7574
rradius 75.714
rwrist -8.99863
rhand -30.0553 -12.1017
rfingers 7.12502
rthumb -3.37084 -42.0548
lclavicle 2.24627e-014 1.59028e-014
lhumerus -68.8465 -19.0229 83.8954
lradius 99.6488
lwrist 0.628513
lhand -34.5592 31.6282
lfingers 7.12502
lthumb -7.71931 61.4673
rfemur 10.2187 -8.95232 32.7236
rtibia 51.2201
rfoot -14.2105 -23.4094
rtoes 20.9359
lfemur -25.7786 -18.9917 -18.0888
ltibia 21.5174
lfoot -14.3963 0.328812
ltoes -18.7384
